#!OML:ASF X:\für Bonn\!DataBase\2005_08_12_Daniel\c3d\Daniel.ASF
:FULLY-SPECIFIED
:DEGREES
1
root -4.40914 16.9584 -0.0741755 12.7611 -80.3391 -24.2264
lowerback 20.8686 -4.22839 4.48902
upperback 5.51198 -4.96801 -0.751264
thorax -6.0544 -2.60131 -2.05759
lowerneck -1.03978 4.3327 0.30297
upperneck 16.2488 5.56974 -0.521243
head 5.07641 2.56077 0.0352562
rclavicle -5.23798e-014 1.19271e-015
rhumerus -40.2779 29.9901 -83.3101
rradius 78.5357
rwrist -5.81092
rhand -27.1418 39.6413
rfingers 7.12502
rthumb -0.557024 9.66232
lclavicle -5.23798e-014 1.19271e-015
lhumerus -14.4856 -7.7718 80.4448
lradius 73.8793
lwrist 21.1245
lhand -18.1382 -6.65897
lfingers 7.12502
lthumb 8.13694 23.1644
rfemur -1.69444 9.27252 26.2733
rtibia 30.7688
rfoot -27.1007 -15.6455
rtoes -6.28707
lfemur -12.1285 -8.18796 -15.2392
ltibia 44.6753
lfoot -23.1389 -1.10788
ltoes 0.505486
2
root -4.39303 16.9655 -0.0276048 10.7873 -79.8449 -22.3365
lowerback 20.9364 -4.72939 3.9762
upperback 5.63598 -5.72883 -0.660333
thorax -5.95499 -2.96746 -1.46837
lowerneck -0.765131 4.57429 0.627297
upperneck 15.9882 5.92411 -0.891265
head 4.9733 2.7338 -0.124461
rclavicle 1.61016e-014 4.77083e-015
rhumerus -41.6272 29.612 -83.7438
rradius 76.6589
rwrist -4.73621
rhand -27.6206 39.8049
rfingers 7.12502
rthumb -1.01949 9.82756
lclavicle 1.61016e-014 4.77083e-015
lhumerus -13.1034 -7.59275 80.1696
lradius 74.9907
lwrist 21.6103
lhand -17.8679 -6.93271
lfingers 7.12502
lthumb 8.39779 22.8803
rfemur -1.95498 7.41081 25.4344
rtibia 31.0384
rfoot -25.9475 -14.7127
rtoes -6.82577
lfemur -11.8953 -8.50565 -15.6811
ltibia 44.2048
lfoot -23.0057 -1.22753
ltoes 0.529668
3
root -4.37388 16.971 0.0199166 9.38629 -79.3575 -21.048
lowerback 21.0688 -5.24077 3.54766
upperback 5.75946 -6.48226 -0.543527
thorax -5.87646 -3.33277 -0.898019
lowerneck -0.491281 4.81692 0.827875
upperneck 15.7325 6.2815 -1.22816
head 4.86948 2.90369 -0.254118
rclavicle -1.37658e-014 0
rhumerus -42.8397 29.306 -84.0866
rradius 74.8385
rwrist -3.87259
rhand -28.0624 39.7706
rfingers 7.12502
rthumb -1.44617 9.79572
lclavicle -1.37658e-014 0
lhumerus -11.6849 -7.34433 79.9325
lradius 76.1096
lwrist 22.204
lhand -17.6903 -7.17293
lfingers 7.12502
lthumb 8.56919 22.6332
rfemur -2.2949 5.66567 24.6861
rtibia 31.4778
rfoot -24.8453 -13.7727
rtoes -7.34509
lfemur -11.7529 -8.84911 -16.0494
ltibia 43.934
lfoot -22.8958 -1.29871
ltoes 0.455872
4
root -4.35117 16.9762 0.0681452 8.16976 -78.9203 -19.9662
lowerback 21.2571 -5.75025 3.16806
upperback 5.8904 -7.22457 -0.455921
thorax -5.81093 -3.6947 -0.385715
lowerneck -0.200823 5.07993 0.978036
upperneck 15.4758 6.66114 -1.5181
head 4.76175 3.08509 -0.361269
rclavicle -7.77745e-014 1.55052e-014
rhumerus -43.9832 28.9591 -84.3965
rradius 73.1247
rwrist -3.10406
rhand -28.4463 39.6568
rfingers 7.12502
rthumb -1.81696 9.68484
lclavicle -7.77745e-014 1.55052e-014
lhumerus -10.2375 -7.06245 79.659
lradius 77.2618
lwrist 22.8551
lhand -17.6221 -7.32238
lfingers 7.12502
lthumb 8.63505 22.481
rfemur -2.75716 4.02372 23.937
rtibia 32.1818
rfoot -23.8179 -12.7792
rtoes -7.87192
lfemur -11.6716 -9.15913 -16.412
ltibia 43.8295
lfoot -22.8034 -1.36631
ltoes 0.386911
5
root -4.32654 16.9789 0.117872 7.1989 -78.5516 -19.1718
lowerback 21.5109 -6.25628 2.85007
upperback 6.03285 -7.95052 -0.381831
thorax -5.7612 -4.05067 0.0795536
lowerneck 0.0752385 5.34741 0.983517
upperneck 14.8404 7.02725 -1.6758
head 5.05519 3.26685 -0.451612
rclavicle 7.36e-014 -2.62396e-014
rhumerus -44.9932 28.5951 -84.6252
rradius 71.4262
rwrist -2.39825
rhand -28.6708 39.4444
rfingers 7.12502
rthumb -2.03374 9.47438
lclavicle 7.36e-014 -2.62396e-014
lhumerus -8.75332 -6.74795 79.3703
lradius 78.4436
lwrist 23.5798
lhand -17.6358 -7.3711
lfingers 7.12502
lthumb 8.62185 22.4328
rfemur -3.39322 2.46007 23.2129
rtibia 33.2313
rfoot -22.7111 -11.801
rtoes -8.32564
lfemur -11.5769 -9.46624 -16.768
ltibia 43.812
lfoot -22.7287 -1.34904
ltoes 0.330796
6
root -4.29935 16.9786 0.167958 6.37471 -78.2371 -18.5378
lowerback 21.8149 -6.74812 2.57922
upperback 6.17023 -8.64855 -0.326973
thorax -5.73897 -4.39398 0.498133
lowerneck 0.338661 5.62029 0.907803
upperneck 14.623 7.40512 -1.79622
head 4.93028 3.44532 -0.473223
rclavicle 5.36222e-014 -1.90833e-014
rhumerus -45.9567 28.0807 -84.769
rradius 69.8216
rwrist -1.60924
rhand -28.7458 39.1147
rfingers 7.12502
rthumb -2.10624 9.1453
lclavicle 5.36222e-014 -1.90833e-014
lhumerus -7.25314 -6.43032 79.0592
lradius 79.7167
lwrist 24.3336
lhand -17.7241 -7.27536
lfingers 7.12502
lthumb 8.53656 22.5321
rfemur -4.26661 1.12597 22.5361
rtibia 34.7007
rfoot -21.4328 -10.9338
rtoes -8.52071
lfemur -11.4479 -9.76519 -17.115
ltibia 43.7972
lfoot -22.6493 -1.33972
ltoes 0.355427
7
root -4.27035 16.9787 0.218459 5.72908 -78.0023 -18.1128
lowerback 22.1895 -7.23867 2.26356
upperback 6.31159 -9.3538 -0.251086
thorax -5.72703 -4.74187 0.975011
lowerneck 0.578674 5.9262 0.830318
upperneck 14.4259 7.83457 -1.99174
head 4.82382 3.64511 -0.517617
rclavicle -2.37548e-014 1.35174e-014
rhumerus -46.8134 27.6158 -84.8032
rradius 68.3103
rwrist -0.70688
rhand -28.7015 38.6894
rfingers 7.12502
rthumb -2.06341 8.71965
lclavicle -2.37548e-014 1.35174e-014
lhumerus -5.78237 -5.9725 78.7136
lradius 81.0431
lwrist 25.0206
lhand -17.8041 -7.16633
lfingers 7.12502
lthumb 8.45942 22.6442
rfemur -5.36406 -0.03736 21.9094
rtibia 36.5903
rfoot -19.8936 -10.1933
rtoes -8.46353
lfemur -11.2294 -10.0492 -17.4538
ltibia 43.7038
lfoot -22.563 -1.27594
ltoes 0.35815
8
root -4.23805 16.986 0.269782 5.14206 -77.849 -17.7872
lowerback 22.6418 -7.6994 1.95771
upperback 6.46917 -10.0208 -0.194709
thorax -5.72868 -5.07233 1.42664
lowerneck 0.745718 6.23855 0.715668
upperneck 14.2684 8.26722 -2.13315
head 4.74291 3.84673 -0.535232
rclavicle -4.33351e-014 1.27222e-014
rhumerus -47.6034 27.0805 -84.7352
rradius 66.9157
rwrist 0.301615
rhand -28.5751 38.1741
rfingers 7.12502
rthumb -1.9414 8.20314
lclavicle -4.33351e-014 1.27222e-014
lhumerus -4.32122 -5.55259 78.3078
lradius 82.4717
lwrist 25.7384
lhand -18.0139 -7.01612
lfingers 7.12502
lthumb 8.25695 22.8025
rfemur -6.71682 -1.06375 21.3082
rtibia 38.8605
rfoot -18.0461 -9.8054
rtoes -8.49988
lfemur -10.8938 -10.3079 -17.7994
ltibia 43.4818
lfoot -22.4077 -1.16581
ltoes 0.643921
9
root -4.20525 17.0012 0.321695 4.76922 -77.7908 -17.6872
lowerback 23.0933 -8.11268 1.76281
upperback 6.63124 -10.6061 -0.182946
thorax -5.74146 -5.36352 1.75254
lowerneck 0.963251 6.51996 0.563141
upperneck 14.0679 8.64938 -2.21038
head 4.62977 4.02666 -0.530415
rclavicle -5.34731e-014 1.19271e-015
rhumerus -48.3706 26.3963 -84.6106
rradius 65.5484
rwrist 1.476
rhand -28.4694 37.6608
rfingers 7.12502
rthumb -1.83925 7.68895
lclavicle -5.34731e-014 1.19271e-015
lhumerus -2.82097 -5.22809 77.8848
lradius 83.8992
lwrist 26.3625
lhand -18.1656 -6.97061
lfingers 7.12502
lthumb 8.11048 22.8538
rfemur -8.31255 -1.88593 20.7749
rtibia 41.4138
rfoot -15.9388 -9.77828
rtoes -8.56345
lfemur -10.4597 -10.5555 -18.131
ltibia 43.1394
lfoot -22.2499 -0.948937
ltoes 0.863312
10
root -4.17239 17.0198 0.373833 4.40116 -77.8119 -17.6164
lowerback 23.5677 -8.49492 1.5406
upperback 6.81117 -11.1604 -0.179851
thorax -5.73574 -5.64123 2.07977
lowerneck 1.12869 6.80102 0.382793
upperneck 13.8871 9.03054 -2.27846
head 4.53234 4.20499 -0.516858
rclavicle -1.1291e-013 5.1684e-014
rhumerus -49.023 25.6708 -84.3804
rradius 64.1736
rwrist 2.77148
rhand -28.3314 37.2534
rfingers 7.12502
rthumb -1.706 7.2805
lclavicle -1.1291e-013 5.1684e-014
lhumerus -1.2998 -4.87187 77.419
lradius 85.3268
lwrist 27.0101
lhand -18.3037 -7.09102
lfingers 7.12502
lthumb 7.97721 22.7385
rfemur -10.0571 -2.57223 20.2669
rtibia 44.1696
rfoot -13.5104 -9.78119
rtoes -7.62298
lfemur -9.94549 -10.7728 -18.4817
ltibia 42.7154
lfoot -22.0917 -0.69384
ltoes 1.22971
11
root -4.13938 17.0358 0.424427 4.2203 -77.8801 -17.7743
lowerback 24.0663 -8.8595 1.3515
upperback 7.01696 -11.6885 -0.195127
thorax -5.71647 -5.90811 2.36691
lowerneck 1.29401 7.07906 0.205595
upperneck 13.6906 9.40362 -2.32421
head 4.42784 4.38166 -0.498117
rclavicle 1.05306e-013 -5.1684e-015
rhumerus -49.5775 24.9221 -84.1048
rradius 62.7483
rwrist 4.16737
rhand -28.2527 37.0587
rfingers 7.12502
rthumb -1.62999 7.08521
lclavicle 1.05306e-013 -5.1684e-015
lhumerus 0.283042 -4.51017 76.9183
lradius 86.6909
lwrist 27.5281
lhand -18.3938 -7.30546
lfingers 7.12502
lthumb 7.89024 22.5273
rfemur -11.8575 -3.11971 19.8402
rtibia 47.0481
rfoot -11.0723 -9.81565
rtoes -6.04857
lfemur -9.35256 -11.0335 -18.8054
ltibia 42.2301
lfoot -21.9784 -0.3269
ltoes 1.51658
